<?xml version="1.0" encoding="UTF-8" standalone="no"?><!DOCTYPE svg PUBLIC "-//W3C//DTD SVG 1.1//EN" "http://www.w3.org/Graphics/SVG/1.1/DTD/svg11.dtd"><svg width="100%" height="100%" viewBox="0 0 33334 18750" version="1.1" xmlns="http://www.w3.org/2000/svg" xmlns:xlink="http://www.w3.org/1999/xlink" xml:space="preserve" xmlns:serif="http://www.serif.com/" style="fill-rule:evenodd;clip-rule:evenodd;stroke-linejoin:round;stroke-miterlimit:2;"><g id="Capa_2"><path d="M710.287,16103.5l7536.42,0c-0,0 3920.53,-7324.5 12370.9,-6728.46c8450.33,596.025 11457,331.125 11973.5,-1496.69c516.558,-1827.81 -5311.25,-4834.46 -10927.2,-5231.79l-3576.16,2052.98c-0,-0 11801.3,781.458 12066.2,2741.72c264.9,1960.26 -5099.33,-211.921 -10821.2,-264.904c-5721.88,-52.979 -13523.2,2516.56 -18622.5,8927.17l0.033,-0.025Z" style="fill:#124087;fill-rule:nonzero;"/><g id="Capa2"><g><g><g transform="matrix(1,0,0,0.925926,0,1198.59)"><text x="11518.2px" y="16181px" style="font-family:'CopperplateGothic-Bold', 'Copperplate Gothic Bold', sans-serif;font-weight:700;font-size:4117.73px;fill:#124087;">PR</text></g><g transform="matrix(1,0,0,0.925926,0,1198.59)"><text x="17946.1px" y="16181px" style="font-family:'CopperplateGothic-Bold', 'Copperplate Gothic Bold', sans-serif;font-weight:700;font-size:4117.73px;fill:#124087;">OBIS</text></g><g transform="matrix(1,0,0,0.925926,3.63798e-12,1198.59)"><text x="28986.4px" y="16181px" style="font-family:'CopperplateGothic-Bold', 'Copperplate Gothic Bold', sans-serif;font-weight:700;font-size:4117.73px;fill:#124087;">A</text></g></g></g></g></g></svg>